<?xml version="1.0" encoding="utf-8"?>
<!-- Generator: Adobe Illustrator 20.1.0, SVG Export Plug-In . SVG Version: 6.00 Build 0)  -->
<svg version="1.1" id="Layer_1" xmlns="http://www.w3.org/2000/svg" xmlns:xlink="http://www.w3.org/1999/xlink" x="0px" y="0px"
	 viewBox="0 0 40 31.4" style="enable-background:new 0 0 40 31.4;" xml:space="preserve">
<path d="M32.8,15.7h-0.3c0,4.8-3.9,8.7-8.7,8.7s-8.7-3.9-8.7-8.7h-7c0,8.7,7,15.7,15.7,15.7c3.3,0,6.4-1,8.9-2.8v1.6H40V15.7H32.8z"
	/>
<path d="M16.2,0c-3.3,0-6.4,1-8.9,2.8V0.9H0v14.6h7.5c0-4.8,3.9-8.5,8.7-8.5s8.7,3.7,8.7,8.5h7C31.9,6.9,24.9,0,16.2,0z"/>
</svg>
